# xmcd CD database file
#
# Track frame offsets:
#	150
#	20750
#	37952
#	58703
#	75151
#	93493
#
# Disc length: 1378 seconds
#
# Revision: 0
# Processed by: cddbd v1.5PL3 Copyright (c) Steve Scherf et al.
# Submitted via: CDex 1.51
#
DISCID=3d056006
DTITLE=鉄板 - 水着だらけの大運動会
DYEAR=1900
DGENRE=Pop
TTITLE0=カメ二匹2
TTITLE1=ストロベリーミー？
TTITLE2=ハートに傷ひとつきり
TTITLE3=ターボ最高
TTITLE4=革命君
TTITLE5=クリスマス・イブ
EXTD=
EXTT0=
EXTT1=
EXTT2=
EXTT3=
EXTT4=
EXTT5=
PLAYORDER=
